<svg width="1041" height="868" viewBox="0 0 1041 868" fill="none" xmlns="http://www.w3.org/2000/svg">
<rect x="342" y="798" width="369" height="70" fill="#1D2731"/>
<rect x="711" y="798" width="330" height="70" fill="#161D24"/>
<path d="M749 846V838H769.2V836H753L749 832V822L753 818H777.2V826H757V828H773.2L777.2 832V842L773.2 846H749ZM790.428 846V826H779.388V818H809.468V826H798.428V846H790.428ZM837.456 846L833.456 842V836H819.656V838H831.456V846H815.656L811.656 842V832L815.656 828H833.456V826H812.656V818H837.456L841.456 822V846H837.456ZM865.445 846L854.645 831.4V846H846.645V826H843.645V818H854.645L865.445 832.6V818H873.445V846H865.445ZM878.638 846V828H886.638V838H897.438V826H875.638V818H901.438L905.438 822V842L901.438 846H878.638ZM935.23 846L931.23 842V836H917.43V838H929.23V846H913.43L909.43 842V832L913.43 828H931.23V826H910.43V818H935.23L939.23 822V846H935.23ZM963.499 846L957.499 840H952.419V846H944.419V828H952.419V832H963.219V826H941.419V818H967.219L971.219 822V836L967.219 840L973.219 846H963.499ZM984.842 846V826H973.802V818H1003.88V826H992.842V846H984.842Z" fill="#B42A40"/>
<path d="M389.456 834.032C390.768 834.768 391.424 835.952 391.424 837.584C391.424 838.88 390.984 839.944 390.104 840.776C389.224 841.592 387.936 842 386.24 842H378.944V826.064H386.24C387.936 826.064 389.224 826.48 390.104 827.312C390.984 828.144 391.424 829.208 391.424 830.504C391.424 832.12 390.768 833.296 389.456 834.032ZM381.584 839.576H386.072C386.92 839.576 387.584 839.392 388.064 839.024C388.544 838.656 388.784 838.12 388.784 837.416C388.784 836.696 388.544 836.152 388.064 835.784C387.584 835.416 386.92 835.232 386.072 835.232H381.584V839.576ZM381.584 832.808H386.072C386.92 832.808 387.584 832.632 388.064 832.28C388.544 831.912 388.784 831.376 388.784 830.672C388.784 829.952 388.544 829.408 388.064 829.04C387.584 828.672 386.92 828.488 386.072 828.488H381.584V832.808ZM411.879 826.064V842H409.239V826.064H411.879ZM405.855 833.552C406.799 834.48 407.271 835.656 407.271 837.08C407.271 838.504 406.799 839.68 405.855 840.608C404.911 841.536 403.527 842 401.703 842H394.671V826.064H397.311V832.16H401.703C403.527 832.16 404.911 832.624 405.855 833.552ZM404.631 837.08C404.631 836.28 404.359 835.664 403.815 835.232C403.287 834.8 402.543 834.584 401.583 834.584H397.311V839.576H401.583C402.559 839.576 403.311 839.368 403.839 838.952C404.367 838.52 404.631 837.896 404.631 837.08ZM434.862 842H432.222V835.232H423.678V842H421.038V826.064H423.678V832.808H432.222V826.064H434.862V842ZM441.109 838.4L439.525 842H436.812L443.773 826.064H446.485L453.445 842H450.637L449.053 838.4H441.109ZM447.997 835.976L445.093 829.328L442.165 835.976H447.997ZM465.189 842L460.965 836.12L456.741 842H453.789L459.477 834.056L453.789 826.064H456.837L461.013 831.92L465.213 826.064H468.213L462.501 834.008L468.213 842H465.189ZM471.649 828.152C473.217 826.552 475.185 825.752 477.553 825.752C479.921 825.752 481.881 826.552 483.433 828.152C485.001 829.752 485.785 831.712 485.785 834.032C485.785 836.352 485.001 838.312 483.433 839.912C481.881 841.512 479.921 842.312 477.553 842.312C475.185 842.312 473.217 841.512 471.649 839.912C470.097 838.312 469.321 836.352 469.321 834.032C469.321 831.712 470.097 829.752 471.649 828.152ZM473.545 838.208C474.617 839.328 475.953 839.888 477.553 839.888C479.153 839.888 480.481 839.328 481.537 838.208C482.609 837.088 483.145 835.696 483.145 834.032C483.145 832.368 482.609 830.976 481.537 829.856C480.481 828.736 479.153 828.176 477.553 828.176C475.953 828.176 474.617 828.736 473.545 829.856C472.489 830.976 471.961 832.368 471.961 834.032C471.961 835.696 472.489 837.088 473.545 838.208ZM503.757 845.528H501.141V842H489.453V845.528H486.837V839.576H488.373C489.525 838.376 490.101 836.264 490.101 833.24V826.064H501.573V839.576H503.757V845.528ZM492.741 828.488V833.216C492.741 836.064 492.341 838.184 491.541 839.576H498.933V828.488H492.741ZM506.491 826.064H509.131V838.112L517.747 826.064H520.507V842H517.867V829.952L509.275 842H506.491V826.064ZM523.029 826.064H536.373V828.488H531.021V842H528.381V828.488H523.029V826.064ZM549.92 828.488H541.568V832.808H549.752V835.232H541.568V839.576H549.92V842H538.928V826.064H549.92V828.488ZM560.638 828.176C559.038 828.176 557.71 828.736 556.654 829.856C555.598 830.96 555.07 832.352 555.07 834.032C555.07 835.712 555.598 837.112 556.654 838.232C557.71 839.336 559.038 839.888 560.638 839.888C562.382 839.888 563.774 839.2 564.814 837.824H567.718C567.062 839.216 566.126 840.312 564.91 841.112C563.694 841.912 562.27 842.312 560.638 842.312C558.302 842.312 556.35 841.528 554.782 839.96C553.214 838.376 552.43 836.4 552.43 834.032C552.43 831.664 553.214 829.696 554.782 828.128C556.35 826.544 558.302 825.752 560.638 825.752C562.254 825.752 563.67 826.16 564.886 826.976C566.118 827.776 567.062 828.872 567.718 830.264H564.814C563.774 828.872 562.382 828.176 560.638 828.176ZM582.281 833.552C583.225 834.48 583.697 835.656 583.697 837.08C583.697 838.504 583.225 839.68 582.281 840.608C581.337 841.536 579.953 842 578.129 842H570.593V826.064H573.233V832.16H578.129C579.953 832.16 581.337 832.624 582.281 833.552ZM581.057 837.08C581.057 836.28 580.785 835.664 580.241 835.232C579.713 834.8 578.969 834.584 578.009 834.584H573.233V839.576H578.009C578.985 839.576 579.737 839.368 580.265 838.952C580.793 838.52 581.057 837.896 581.057 837.08ZM602.339 834.032C603.651 834.768 604.307 835.952 604.307 837.584C604.307 838.88 603.867 839.944 602.987 840.776C602.107 841.592 600.819 842 599.123 842H591.827V826.064H599.123C600.819 826.064 602.107 826.48 602.987 827.312C603.867 828.144 604.307 829.208 604.307 830.504C604.307 832.12 603.651 833.296 602.339 834.032ZM594.467 839.576H598.955C599.803 839.576 600.467 839.392 600.947 839.024C601.427 838.656 601.667 838.12 601.667 837.416C601.667 836.696 601.427 836.152 600.947 835.784C600.467 835.416 599.803 835.232 598.955 835.232H594.467V839.576ZM594.467 832.808H598.955C599.803 832.808 600.467 832.632 600.947 832.28C601.427 831.912 601.667 831.376 601.667 830.672C601.667 829.952 601.427 829.408 600.947 829.04C600.467 828.672 599.803 828.488 598.955 828.488H594.467V832.808ZM622.283 837.44C622.283 836.736 622.035 836.2 621.539 835.832C621.059 835.448 620.387 835.256 619.523 835.256H615.779V832.832H619.523C620.371 832.832 621.035 832.64 621.515 832.256C622.011 831.872 622.259 831.344 622.259 830.672C622.259 829.888 621.915 829.28 621.227 828.848C620.539 828.4 619.643 828.176 618.539 828.176C617.579 828.176 616.723 828.368 615.971 828.752C615.235 829.12 614.723 829.624 614.435 830.264H611.675C612.075 829.016 612.851 827.952 614.003 827.072C615.155 826.192 616.643 825.752 618.467 825.752C620.323 825.752 621.859 826.184 623.075 827.048C624.291 827.912 624.899 829.12 624.899 830.672C624.899 832.144 624.243 833.264 622.931 834.032C624.259 834.8 624.923 835.928 624.923 837.416C624.923 838.856 624.315 840.032 623.099 840.944C621.883 841.856 620.331 842.312 618.443 842.312C614.843 842.312 612.555 840.816 611.579 837.824H614.339C615.107 839.2 616.475 839.888 618.443 839.888C619.563 839.888 620.483 839.68 621.203 839.264C621.923 838.848 622.283 838.24 622.283 837.44ZM629.641 828.152C631.209 826.552 633.177 825.752 635.545 825.752C637.913 825.752 639.873 826.552 641.425 828.152C642.993 829.752 643.777 831.712 643.777 834.032C643.777 836.352 642.993 838.312 641.425 839.912C639.873 841.512 637.913 842.312 635.545 842.312C633.177 842.312 631.209 841.512 629.641 839.912C628.089 838.312 627.313 836.352 627.313 834.032C627.313 831.712 628.089 829.752 629.641 828.152ZM631.537 838.208C632.609 839.328 633.945 839.888 635.545 839.888C637.145 839.888 638.473 839.328 639.529 838.208C640.601 837.088 641.137 835.696 641.137 834.032C641.137 832.368 640.601 830.976 639.529 829.856C638.473 828.736 637.145 828.176 635.545 828.176C633.945 828.176 632.609 828.736 631.537 829.856C630.481 830.976 629.953 832.368 629.953 834.032C629.953 835.696 630.481 837.088 631.537 838.208ZM660.588 842H657.948V835.232H649.404V842H646.764V826.064H649.404V832.808H657.948V826.064H660.588V842ZM675.475 828.488H667.123V832.808H675.307V835.232H667.123V839.576H675.475V842H664.483V826.064H675.475V828.488Z" fill="white"/>
<path d="M481.654 505L541.154 445.5V356.25L481.654 296.75L541.154 237.25V148L481.654 88.4998H190.104L130.604 148V237.25L190.104 296.75L130.604 356.25V445.5L190.104 505H481.654ZM469.754 433.6H202.004V332.45H469.754V433.6ZM469.754 261.05H202.004V159.9H469.754V261.05ZM951.727 505L1011.23 445.5V356.25L951.727 296.75L1011.23 237.25V148L951.727 88.4998H660.177L600.677 148V237.25L660.177 296.75L600.677 356.25V445.5L660.177 505H951.727ZM939.827 433.6H672.077V332.45H939.827V433.6ZM939.827 261.05H672.077V159.9H939.827V261.05Z" fill="#B42A40"/>
</svg>
