<svg width="1041" height="624" viewBox="0 0 1041 624" fill="none" xmlns="http://www.w3.org/2000/svg">
<path d="M481.654 505L541.154 445.5V356.25L481.654 296.75L541.154 237.25V148L481.654 88.5H190.104L130.604 148V237.25L190.104 296.75L130.604 356.25V445.5L190.104 505H481.654ZM469.754 433.6H202.004V332.45H469.754V433.6ZM469.754 261.05H202.004V159.9H469.754V261.05ZM951.727 505L1011.23 445.5V356.25L951.727 296.75L1011.23 237.25V148L951.727 88.5H660.177L600.677 148V237.25L660.177 296.75L600.677 356.25V445.5L660.177 505H951.727ZM939.827 433.6H672.077V332.45H939.827V433.6ZM939.827 261.05H672.077V159.9H939.827V261.05Z" fill="#B42A40"/>
</svg>
