<svg width="467" height="163" viewBox="0 0 467 163" fill="none" xmlns="http://www.w3.org/2000/svg">
<rect x="136" y="38" width="148" height="70" fill="#0E1821"/>
<path d="M241.458 49H178.542C175.481 49 173 51.4565 173 54.4869V91.5131C173 94.5434 175.481 97 178.542 97H241.458C244.519 97 247 94.5435 247 91.5131V54.4869C247 51.4565 244.519 49 241.458 49Z" fill="#F5F5F5"/>
<path d="M178.542 97C175.481 97 173 94.5434 173 91.5131V97H178.542Z" fill="#F5F5F5"/>
<path d="M241.458 49C244.519 49 247 51.4565 247 54.4869V49H241.458Z" fill="#F5F5F5"/>
<path d="M247 91.5131C247 94.5435 244.519 97 241.458 97H247V91.5131Z" fill="#F5F5F5"/>
<path d="M173.305 52.6923H247C246.249 50.5435 243.884 49 241.458 49H178.542C176.116 49 174.056 50.5435 173.305 52.6923Z" fill="#FF4B55"/>
<path d="M241.458 49C243.884 49 246.249 50.5435 247 52.6923V49H241.458Z" fill="#FF4B55"/>
<path d="M247 63.7695H173V67.4617H247V63.7695Z" fill="#FF4B55"/>
<path d="M247 56.3843H173V60.0765H247V56.3843Z" fill="#FF4B55"/>
<path d="M173 73.5834C173 74.281 173.571 74.8466 174.276 74.8466H247V71.1543H173V73.5834Z" fill="#FF4B55"/>
<path d="M247 85.9238H173V89.6162H247V85.9238Z" fill="#FF4B55"/>
<path d="M247 93.3076H173C173.751 95.4564 176.117 97 178.542 97H241.458C243.884 97 246.249 95.4564 247 93.3076Z" fill="#FF4B55"/>
<path d="M247 93.3076C246.249 95.4564 243.884 97 241.458 97H247V93.3076Z" fill="#FF4B55"/>
<path d="M178.542 97C176.117 97 173.751 95.4564 173 93.3076V97H178.542Z" fill="#FF4B55"/>
<path d="M247 78.5386H173V82.2308H247V78.5386Z" fill="#FF4B55"/>
<path d="M174.276 74.8462H206.173C206.877 74.8462 207.448 74.2806 207.448 73.583V50.2632C207.448 49.5655 206.877 49 206.173 49H178.542C175.481 49.0001 173 51.4566 173 54.487V73.583C173 74.2807 173.571 74.8462 174.276 74.8462Z" fill="#41479B"/>
<path d="M173 54.487C173 51.4566 175.481 49.0001 178.542 49H173V54.487Z" fill="#41479B"/>
<path d="M176.583 51.8989L176.865 52.7375L177.758 52.7442C177.874 52.7452 177.922 52.8911 177.829 52.9591L177.11 53.4841L177.38 54.3268C177.415 54.4358 177.289 54.5262 177.195 54.4596L176.469 53.9457L175.743 54.4597C175.648 54.5264 175.523 54.436 175.558 54.3269L175.827 53.4843L175.109 52.9593C175.016 52.8911 175.064 52.7452 175.18 52.7443L176.072 52.7376L176.355 51.8991C176.391 51.7903 176.546 51.7903 176.583 51.8989Z" fill="#F5F5F5"/>
<path d="M176.583 56.2854L176.865 57.1239L177.758 57.1306C177.874 57.1316 177.922 57.2774 177.829 57.3455L177.11 57.8707L177.38 58.7133C177.415 58.8224 177.289 58.9128 177.195 58.8461L176.469 58.3323L175.743 58.8463C175.648 58.9128 175.523 58.8225 175.558 58.7135L175.827 57.8708L175.109 57.3457C175.016 57.2776 175.064 57.1317 175.18 57.1307L176.072 57.124L176.355 56.2855C176.391 56.1769 176.546 56.1769 176.583 56.2854Z" fill="#F5F5F5"/>
<path d="M176.583 60.6716L176.865 61.5102L177.758 61.5169C177.874 61.5179 177.922 61.6637 177.829 61.7318L177.11 62.2569L177.38 63.0996C177.415 63.2087 177.289 63.2991 177.195 63.2324L176.469 62.7186L175.743 63.2325C175.648 63.2991 175.523 63.2089 175.558 63.0998L175.827 62.2571L175.109 61.7319C175.016 61.6638 175.064 61.518 175.18 61.517L176.072 61.5103L176.355 60.6718C176.391 60.563 176.546 60.563 176.583 60.6716Z" fill="#F5F5F5"/>
<path d="M176.583 65.0578L176.865 65.8963L177.758 65.903C177.874 65.904 177.922 66.05 177.829 66.1179L177.11 66.6431L177.38 67.4858C177.415 67.5948 177.289 67.6852 177.195 67.6185L176.469 67.1047L175.743 67.6187C175.648 67.6852 175.523 67.5949 175.558 67.4859L175.827 66.6432L175.109 66.1181C175.016 66.0503 175.064 65.9042 175.18 65.9032L176.072 65.8964L176.355 65.0579C176.391 64.9492 176.546 64.9492 176.583 65.0578Z" fill="#F5F5F5"/>
<path d="M176.583 69.4443L176.865 70.2829L177.758 70.2896C177.874 70.2906 177.922 70.4364 177.829 70.5045L177.11 71.0297L177.38 71.8723C177.415 71.9814 177.289 72.0718 177.195 72.0051L176.469 71.4913L175.743 72.0053C175.648 72.0718 175.523 71.9815 175.558 71.8725L175.827 71.0298L175.109 70.5046C175.016 70.4365 175.064 70.2907 175.18 70.2897L176.072 70.283L176.355 69.4445C176.391 69.3359 176.546 69.3359 176.583 69.4443Z" fill="#F5F5F5"/>
<path d="M180.022 54.0495L180.304 54.8881L181.197 54.8948C181.312 54.8958 181.36 55.0417 181.267 55.1097L180.549 55.6349L180.819 56.4775C180.854 56.5866 180.728 56.677 180.634 56.6103L179.908 56.0963L179.181 56.6103C179.087 56.6769 178.962 56.5866 178.997 56.4775L179.266 55.6349L178.548 55.1097C178.455 55.0416 178.503 54.8958 178.618 54.8948L179.511 54.8881L179.794 54.0495C179.83 53.9411 179.985 53.9411 180.022 54.0495Z" fill="#F5F5F5"/>
<path d="M180.022 58.4358L180.304 59.2743L181.197 59.2811C181.312 59.2821 181.36 59.428 181.267 59.496L180.549 60.0211L180.819 60.8638C180.854 60.9728 180.728 61.0633 180.634 60.9966L179.908 60.4826L179.181 60.9966C179.087 61.0631 178.962 60.973 178.997 60.8638L179.266 60.0211L178.548 59.496C178.455 59.4282 178.503 59.2821 178.618 59.2811L179.511 59.2743L179.794 58.4358C179.83 58.3272 179.985 58.3272 180.022 58.4358Z" fill="#F5F5F5"/>
<path d="M180.022 62.822L180.304 63.6605L181.197 63.6672C181.312 63.6682 181.36 63.814 181.267 63.8821L180.549 64.4073L180.819 65.25C180.854 65.359 180.728 65.4494 180.634 65.3828L179.908 64.8688L179.181 65.3828C179.087 65.4493 178.962 65.359 178.997 65.25L179.266 64.4073L178.548 63.8821C178.455 63.814 178.503 63.6682 178.618 63.6672L179.511 63.6605L179.794 62.822C179.83 62.7134 179.985 62.7134 180.022 62.822Z" fill="#F5F5F5"/>
<path d="M180.022 67.2085L180.304 68.047L181.197 68.0538C181.312 68.0548 181.36 68.2006 181.267 68.2687L180.549 68.7938L180.819 69.6365C180.854 69.7455 180.728 69.836 180.634 69.7693L179.908 69.2553L179.181 69.7693C179.087 69.836 178.962 69.7455 178.997 69.6365L179.266 68.7938L178.548 68.2687C178.455 68.2006 178.503 68.0548 178.618 68.0538L179.511 68.047L179.794 67.2085C179.83 67.1001 179.985 67.1001 180.022 67.2085Z" fill="#F5F5F5"/>
<path d="M183.461 51.8988L183.743 52.7374L184.636 52.7441C184.751 52.7451 184.799 52.891 184.706 52.959L183.988 53.484L184.258 54.3267C184.292 54.4357 184.167 54.5261 184.073 54.4595L183.347 53.9455L182.62 54.4595C182.526 54.5261 182.401 54.4357 182.436 54.3267L182.705 53.484L181.987 52.959C181.894 52.8909 181.942 52.7449 182.057 52.7441L182.95 52.7374L183.233 51.8988C183.269 51.7902 183.424 51.7902 183.461 51.8988Z" fill="#F5F5F5"/>
<path d="M183.461 56.2854L183.743 57.1239L184.636 57.1306C184.751 57.1316 184.799 57.2774 184.706 57.3455L183.988 57.8707L184.258 58.7134C184.292 58.8224 184.167 58.9128 184.073 58.8461L183.347 58.3322L182.62 58.8461C182.526 58.9127 182.401 58.8224 182.436 58.7134L182.705 57.8707L181.987 57.3455C181.894 57.2774 181.942 57.1316 182.057 57.1306L182.95 57.1239L183.233 56.2854C183.269 56.1769 183.424 56.1769 183.461 56.2854Z" fill="#F5F5F5"/>
<path d="M183.461 60.6716L183.743 61.5102L184.636 61.5169C184.751 61.5179 184.799 61.6637 184.706 61.7318L183.988 62.257L184.258 63.0996C184.292 63.2087 184.167 63.2991 184.073 63.2324L183.347 62.7184L182.62 63.2324C182.526 63.299 182.401 63.2088 182.436 63.0996L182.705 62.257L181.987 61.7318C181.894 61.6637 181.942 61.5179 182.057 61.5169L182.95 61.5102L183.233 60.6716C183.269 60.563 183.424 60.563 183.461 60.6716Z" fill="#F5F5F5"/>
<path d="M183.461 65.0578L183.743 65.8963L184.636 65.903C184.751 65.904 184.799 66.05 184.706 66.118L183.988 66.6431L184.258 67.4858C184.292 67.5948 184.167 67.6853 184.073 67.6186L183.347 67.1046L182.62 67.6186C182.526 67.6851 182.401 67.5948 182.436 67.4858L182.705 66.6431L181.987 66.118C181.894 66.0501 181.942 65.904 182.057 65.903L182.95 65.8963L183.233 65.0578C183.269 64.9492 183.424 64.9492 183.461 65.0578Z" fill="#F5F5F5"/>
<path d="M183.461 69.4444L183.743 70.2829L184.636 70.2896C184.751 70.2906 184.799 70.4364 184.706 70.5045L183.988 71.0297L184.258 71.8723C184.292 71.9814 184.167 72.0718 184.073 72.0051L183.347 71.4911L182.62 72.0051C182.526 72.0717 182.401 71.9814 182.436 71.8723L182.705 71.0297L181.987 70.5045C181.894 70.4364 181.942 70.2906 182.057 70.2896L182.95 70.2829L183.233 69.4444C183.269 69.3359 183.424 69.3359 183.461 69.4444Z" fill="#F5F5F5"/>
<path d="M186.9 54.0495L187.182 54.8881L188.075 54.8948C188.19 54.8958 188.238 55.0417 188.145 55.1097L187.427 55.6349L187.696 56.4775C187.731 56.5866 187.606 56.677 187.512 56.6103L186.786 56.0963L186.059 56.6103C185.965 56.6769 185.84 56.5866 185.875 56.4775L186.144 55.6349L185.426 55.1097C185.333 55.0416 185.381 54.8958 185.496 54.8948L186.389 54.8881L186.671 54.0495C186.708 53.9411 186.863 53.9411 186.9 54.0495Z" fill="#F5F5F5"/>
<path d="M186.9 58.4358L187.182 59.2743L188.075 59.2811C188.19 59.2821 188.238 59.428 188.145 59.496L187.427 60.0211L187.696 60.8638C187.731 60.9728 187.606 61.0633 187.512 60.9966L186.786 60.4826L186.059 60.9966C185.965 61.0631 185.84 60.973 185.875 60.8638L186.144 60.0211L185.426 59.496C185.333 59.4282 185.381 59.2821 185.496 59.2811L186.389 59.2743L186.671 58.4358C186.708 58.3272 186.863 58.3272 186.9 58.4358Z" fill="#F5F5F5"/>
<path d="M186.9 62.822L187.182 63.6605L188.075 63.6672C188.19 63.6682 188.238 63.814 188.145 63.8821L187.427 64.4073L187.696 65.25C187.731 65.359 187.606 65.4494 187.512 65.3828L186.786 64.8688L186.059 65.3828C185.965 65.4493 185.84 65.359 185.875 65.25L186.144 64.4073L185.426 63.8821C185.333 63.814 185.381 63.6682 185.496 63.6672L186.389 63.6605L186.671 62.822C186.708 62.7134 186.863 62.7134 186.9 62.822Z" fill="#F5F5F5"/>
<path d="M186.9 67.2085L187.182 68.047L188.075 68.0538C188.19 68.0548 188.238 68.2006 188.145 68.2687L187.427 68.7938L187.696 69.6365C187.731 69.7455 187.606 69.836 187.512 69.7693L186.786 69.2553L186.059 69.7693C185.965 69.836 185.84 69.7455 185.875 69.6365L186.144 68.7938L185.426 68.2687C185.333 68.2006 185.381 68.0548 185.496 68.0538L186.389 68.047L186.671 67.2085C186.708 67.1001 186.863 67.1001 186.9 67.2085Z" fill="#F5F5F5"/>
<path d="M190.338 51.8989L190.621 52.7375L191.514 52.7442C191.629 52.7452 191.677 52.8911 191.584 52.9591L190.866 53.4841L191.135 54.3268C191.17 54.4358 191.045 54.5262 190.951 54.4596L190.224 53.9457L189.498 54.4597C189.404 54.5264 189.279 54.436 189.313 54.3269L189.583 53.4843L188.864 52.9593C188.772 52.8911 188.819 52.7452 188.935 52.7443L189.828 52.7376L190.11 51.8991C190.147 51.7903 190.302 51.7903 190.338 51.8989Z" fill="#F5F5F5"/>
<path d="M190.338 56.2854L190.621 57.1239L191.514 57.1306C191.629 57.1316 191.677 57.2774 191.584 57.3455L190.866 57.8707L191.135 58.7134C191.17 58.8224 191.045 58.9128 190.951 58.8461L190.224 58.3322L189.498 58.8461C189.404 58.9127 189.279 58.8224 189.313 58.7134L189.583 57.8707L188.864 57.3455C188.772 57.2774 188.819 57.1316 188.935 57.1306L189.828 57.1239L190.11 56.2854C190.147 56.1769 190.302 56.1769 190.338 56.2854Z" fill="#F5F5F5"/>
<path d="M190.338 60.6717L190.621 61.5102L191.514 61.5169C191.629 61.5179 191.677 61.6637 191.584 61.7318L190.866 62.257L191.135 63.0996C191.17 63.2087 191.045 63.2991 190.951 63.2324L190.224 62.7183L189.498 63.2323C189.404 63.2988 189.279 63.2085 189.313 63.0995L189.583 62.2568L188.864 61.7317C188.772 61.6636 188.819 61.5178 188.935 61.5168L189.828 61.51L190.11 60.6715C190.147 60.5631 190.302 60.5631 190.338 60.6717Z" fill="#F5F5F5"/>
<path d="M190.338 65.0578L190.621 65.8963L191.514 65.903C191.629 65.904 191.677 66.05 191.584 66.118L190.866 66.6431L191.135 67.4858C191.17 67.5948 191.045 67.6853 190.951 67.6186L190.224 67.1046L189.498 67.6186C189.404 67.6851 189.279 67.5948 189.313 67.4858L189.583 66.6431L188.864 66.118C188.772 66.0501 188.819 65.904 188.935 65.903L189.828 65.8963L190.11 65.0578C190.147 64.9492 190.302 64.9492 190.338 65.0578Z" fill="#F5F5F5"/>
<path d="M190.338 69.4444L190.621 70.2829L191.514 70.2896C191.629 70.2906 191.677 70.4364 191.584 70.5045L190.866 71.0297L191.135 71.8723C191.17 71.9814 191.045 72.0718 190.951 72.0051L190.224 71.4911L189.498 72.0051C189.404 72.0717 189.279 71.9814 189.313 71.8723L189.583 71.0297L188.864 70.5045C188.772 70.4364 188.819 70.2906 188.935 70.2896L189.828 70.2829L190.11 69.4444C190.147 69.3359 190.302 69.3359 190.338 69.4444Z" fill="#F5F5F5"/>
<path d="M193.777 54.0495L194.06 54.8881L194.952 54.8948C195.068 54.8958 195.116 55.0417 195.023 55.1097L194.305 55.6349L194.574 56.4775C194.609 56.5866 194.484 56.677 194.389 56.6103L193.663 56.0963L192.937 56.6103C192.843 56.6769 192.718 56.5866 192.752 56.4775L193.022 55.6349L192.303 55.1097C192.211 55.0416 192.258 54.8958 192.374 54.8948L193.267 54.8881L193.549 54.0495C193.586 53.9411 193.741 53.9411 193.777 54.0495Z" fill="#F5F5F5"/>
<path d="M193.777 58.4358L194.06 59.2743L194.952 59.2811C195.068 59.2821 195.116 59.428 195.023 59.496L194.305 60.0211L194.574 60.8638C194.609 60.9728 194.484 61.0633 194.389 60.9966L193.663 60.4826L192.937 60.9966C192.843 61.0631 192.718 60.973 192.752 60.8638L193.022 60.0211L192.303 59.496C192.211 59.4282 192.258 59.2821 192.374 59.2811L193.267 59.2743L193.549 58.4358C193.586 58.3272 193.741 58.3272 193.777 58.4358Z" fill="#F5F5F5"/>
<path d="M193.777 62.822L194.06 63.6605L194.952 63.6672C195.068 63.6682 195.116 63.814 195.023 63.8821L194.305 64.4073L194.574 65.25C194.609 65.359 194.484 65.4494 194.389 65.3828L193.663 64.8688L192.937 65.3828C192.843 65.4493 192.718 65.359 192.752 65.25L193.022 64.4073L192.303 63.8821C192.211 63.814 192.258 63.6682 192.374 63.6672L193.267 63.6605L193.549 62.822C193.586 62.7134 193.741 62.7134 193.777 62.822Z" fill="#F5F5F5"/>
<path d="M193.777 67.2085L194.06 68.047L194.952 68.0538C195.068 68.0548 195.116 68.2006 195.023 68.2687L194.305 68.7938L194.574 69.6365C194.609 69.7455 194.484 69.836 194.389 69.7693L193.663 69.2553L192.937 69.7693C192.843 69.836 192.718 69.7455 192.752 69.6365L193.022 68.7938L192.303 68.2687C192.211 68.2006 192.258 68.0548 192.374 68.0538L193.267 68.047L193.549 67.2085C193.586 67.1001 193.741 67.1001 193.777 67.2085Z" fill="#F5F5F5"/>
<path d="M197.216 51.8988L197.498 52.7374L198.391 52.7441C198.507 52.7451 198.555 52.891 198.462 52.959L197.744 53.484L198.013 54.3267C198.048 54.4357 197.922 54.5261 197.828 54.4595L197.102 53.9455L196.376 54.4595C196.282 54.5261 196.156 54.4357 196.191 54.3267L196.46 53.484L195.742 52.959C195.649 52.8909 195.697 52.7449 195.813 52.7441L196.706 52.7374L196.988 51.8988C197.024 51.7902 197.179 51.7902 197.216 51.8988Z" fill="#F5F5F5"/>
<path d="M197.216 56.2854L197.498 57.1239L198.391 57.1306C198.507 57.1316 198.555 57.2774 198.462 57.3455L197.743 57.8707L198.013 58.7134C198.048 58.8224 197.922 58.9128 197.828 58.8461L197.102 58.3322L196.376 58.8461C196.282 58.9127 196.156 58.8224 196.191 58.7134L196.46 57.8707L195.742 57.3455C195.649 57.2774 195.697 57.1316 195.813 57.1306L196.705 57.1239L196.988 56.2854C197.024 56.1769 197.179 56.1769 197.216 56.2854Z" fill="#F5F5F5"/>
<path d="M197.216 60.6716L197.498 61.5102L198.391 61.5169C198.507 61.5179 198.555 61.6637 198.462 61.7318L197.743 62.257L198.013 63.0996C198.048 63.2087 197.922 63.2991 197.828 63.2324L197.102 62.7184L196.376 63.2324C196.282 63.299 196.156 63.2088 196.191 63.0996L196.46 62.257L195.742 61.7318C195.649 61.6637 195.697 61.5179 195.813 61.5169L196.705 61.5102L196.988 60.6716C197.024 60.563 197.179 60.563 197.216 60.6716Z" fill="#F5F5F5"/>
<path d="M197.216 65.0578L197.498 65.8963L198.391 65.903C198.507 65.904 198.555 66.05 198.462 66.118L197.743 66.6431L198.013 67.4858C198.048 67.5948 197.922 67.6853 197.828 67.6186L197.102 67.1046L196.376 67.6186C196.282 67.6851 196.156 67.5948 196.191 67.4858L196.46 66.6431L195.742 66.118C195.649 66.0501 195.697 65.904 195.813 65.903L196.705 65.8963L196.988 65.0578C197.024 64.9492 197.179 64.9492 197.216 65.0578Z" fill="#F5F5F5"/>
<path d="M197.216 69.4444L197.498 70.2829L198.391 70.2896C198.507 70.2906 198.555 70.4364 198.462 70.5045L197.743 71.0297L198.013 71.8723C198.048 71.9814 197.922 72.0718 197.828 72.0051L197.102 71.4911L196.376 72.0051C196.282 72.0717 196.156 71.9814 196.191 71.8723L196.46 71.0297L195.742 70.5045C195.649 70.4364 195.697 70.2906 195.813 70.2896L196.705 70.2829L196.988 69.4444C197.024 69.3359 197.179 69.3359 197.216 69.4444Z" fill="#F5F5F5"/>
<path d="M200.655 54.0495L200.937 54.8881L201.83 54.8948C201.946 54.8958 201.994 55.0417 201.901 55.1097L201.182 55.6349L201.452 56.4775C201.487 56.5866 201.361 56.677 201.267 56.6103L200.541 56.0963L199.815 56.6103C199.721 56.6769 199.595 56.5866 199.63 56.4775L199.899 55.6349L199.181 55.1097C199.088 55.0416 199.136 54.8958 199.252 54.8948L200.144 54.8881L200.427 54.0495C200.463 53.9411 200.618 53.9411 200.655 54.0495Z" fill="#F5F5F5"/>
<path d="M200.655 58.4358L200.937 59.2743L201.83 59.2811C201.946 59.2821 201.994 59.428 201.901 59.496L201.182 60.0211L201.452 60.8638C201.487 60.9728 201.361 61.0633 201.267 60.9966L200.541 60.4826L199.815 60.9966C199.721 61.0631 199.595 60.973 199.63 60.8638L199.899 60.0211L199.181 59.496C199.088 59.4282 199.136 59.2821 199.252 59.2811L200.144 59.2743L200.427 58.4358C200.463 58.3272 200.618 58.3272 200.655 58.4358Z" fill="#F5F5F5"/>
<path d="M200.655 62.822L200.937 63.6605L201.83 63.6672C201.946 63.6682 201.994 63.814 201.901 63.8821L201.182 64.4073L201.452 65.25C201.487 65.359 201.361 65.4494 201.267 65.3828L200.541 64.8688L199.815 65.3828C199.721 65.4493 199.595 65.359 199.63 65.25L199.899 64.4073L199.181 63.8821C199.088 63.814 199.136 63.6682 199.252 63.6672L200.144 63.6605L200.427 62.822C200.463 62.7134 200.618 62.7134 200.655 62.822Z" fill="#F5F5F5"/>
<path d="M200.655 67.2085L200.937 68.047L201.83 68.0538C201.946 68.0548 201.994 68.2006 201.901 68.2687L201.182 68.7938L201.452 69.6365C201.487 69.7455 201.361 69.836 201.267 69.7693L200.541 69.2553L199.815 69.7693C199.721 69.836 199.595 69.7455 199.63 69.6365L199.899 68.7938L199.181 68.2687C199.088 68.2006 199.136 68.0548 199.252 68.0538L200.144 68.047L200.427 67.2085C200.463 67.1001 200.618 67.1001 200.655 67.2085Z" fill="#F5F5F5"/>
<path d="M204.094 51.8988L204.376 52.7374L205.269 52.7441C205.385 52.7451 205.433 52.891 205.34 52.959L204.621 53.484L204.891 54.3267C204.926 54.4357 204.8 54.5261 204.706 54.4595L203.98 53.9455L203.254 54.4595C203.159 54.5261 203.034 54.4357 203.069 54.3267L203.338 53.484L202.62 52.959C202.527 52.8909 202.575 52.7449 202.691 52.7441L203.583 52.7374L203.866 51.8988C203.902 51.7902 204.057 51.7902 204.094 51.8988Z" fill="#F5F5F5"/>
<path d="M204.094 56.2854L204.376 57.1239L205.269 57.1306C205.385 57.1316 205.433 57.2774 205.34 57.3455L204.621 57.8707L204.891 58.7134C204.926 58.8224 204.8 58.9128 204.706 58.8461L203.98 58.3322L203.254 58.8461C203.159 58.9127 203.034 58.8224 203.069 58.7134L203.338 57.8707L202.62 57.3455C202.527 57.2774 202.575 57.1316 202.691 57.1306L203.583 57.1239L203.866 56.2854C203.902 56.1769 204.057 56.1769 204.094 56.2854Z" fill="#F5F5F5"/>
<path d="M204.094 60.6716L204.376 61.5102L205.269 61.5169C205.385 61.5179 205.433 61.6637 205.34 61.7318L204.621 62.257L204.891 63.0996C204.926 63.2087 204.8 63.2991 204.706 63.2324L203.98 62.7184L203.254 63.2324C203.159 63.299 203.034 63.2088 203.069 63.0996L203.338 62.257L202.62 61.7318C202.527 61.6637 202.575 61.5179 202.691 61.5169L203.583 61.5102L203.866 60.6716C203.902 60.563 204.057 60.563 204.094 60.6716Z" fill="#F5F5F5"/>
<path d="M204.094 65.0578L204.376 65.8963L205.269 65.903C205.385 65.904 205.433 66.05 205.34 66.118L204.621 66.6431L204.891 67.4858C204.926 67.5948 204.8 67.6853 204.706 67.6186L203.98 67.1046L203.254 67.6186C203.159 67.6851 203.034 67.5948 203.069 67.4858L203.338 66.6431L202.62 66.118C202.527 66.0501 202.575 65.904 202.691 65.903L203.583 65.8963L203.866 65.0578C203.902 64.9492 204.057 64.9492 204.094 65.0578Z" fill="#F5F5F5"/>
<path d="M204.094 69.4444L204.376 70.2829L205.269 70.2896C205.385 70.2906 205.433 70.4364 205.34 70.5045L204.621 71.0297L204.891 71.8723C204.926 71.9814 204.8 72.0718 204.706 72.0051L203.98 71.4911L203.254 72.0051C203.159 72.0717 203.034 71.9814 203.069 71.8723L203.338 71.0297L202.62 70.5045C202.527 70.4364 202.575 70.2906 202.691 70.2896L203.583 70.2829L203.866 69.4444C203.902 69.3359 204.057 69.3359 204.094 69.4444Z" fill="#F5F5F5"/>
<rect opacity="0.8" x="173" y="49" width="74" height="48" fill="black"/>
<rect y="38" width="148" height="70" fill="#1D3449"/>
<path d="M106.383 48.7588C106.383 48.7588 45.7192 48.7588 42.6169 48.7588C39.5147 48.7588 37 51.24 37 54.3008C37 57.3617 37 64.9197 37 64.9197H112V54.3008C112 51.24 109.485 48.7588 106.383 48.7588Z" fill="#F5F5F5"/>
<path d="M106.383 48.7588C109.485 48.7588 112 51.24 112 54.3008V48.7588H106.383Z" fill="#F5F5F5"/>
<path d="M37 54.3008C37 51.24 39.5147 48.7588 42.6169 48.7588H37V54.3008Z" fill="#F5F5F5"/>
<path d="M37 91.6994C37 94.7602 39.5147 97.2415 42.6169 97.2415H106.383C109.485 97.2415 112 94.7603 112 91.6994V81.0806H37V91.6994Z" fill="#FF4B55"/>
<path d="M42.6169 97.2415C39.5147 97.2415 37 94.7602 37 91.6994V97.2415H42.6169Z" fill="#FF4B55"/>
<path d="M112 91.6994C112 94.7603 109.485 97.2415 106.383 97.2415H112V91.6994Z" fill="#FF4B55"/>
<path d="M112 64.9194H37V81.0795H112V64.9194Z" fill="#41479B"/>
<rect x="327" y="119" width="42" height="38" rx="5" fill="#405B74"/>
<path d="M341.08 140.998L340.209 143H339L342.796 134.368H344.07L347.853 143H346.605L345.734 140.998H341.08ZM345.266 139.919L343.407 135.642L341.548 139.919H345.266ZM348.889 134.303H350.007V143H348.889V134.303ZM352.543 135.382H353.661V137.02H355.572V138.008H353.661V140.842C353.661 141.241 353.748 141.535 353.921 141.726C354.094 141.917 354.372 142.012 354.753 142.012H355.572V143H354.649C353.982 143 353.462 142.84 353.089 142.519C352.725 142.19 352.543 141.709 352.543 141.076V138.008H351.438V137.02H352.543V135.382Z" fill="white"/>
<path d="M385.955 137.97H383.42V135.435H382.38V137.97H379.845V139.01H382.38V141.545H383.42V139.01H385.955V137.97Z" fill="white"/>
<rect x="397" y="119" width="70" height="38" rx="5" fill="#405B74"/>
<path d="M417.325 140.855H418.599C418.807 141.228 419.128 141.527 419.561 141.752C420.003 141.969 420.506 142.077 421.069 142.077C421.719 142.077 422.256 141.943 422.681 141.674C423.106 141.397 423.318 141.05 423.318 140.634C423.318 140.227 423.171 139.915 422.876 139.698C422.581 139.481 422.118 139.338 421.485 139.269L419.977 139.113C419.154 139.035 418.543 138.788 418.144 138.372C417.754 137.956 417.559 137.427 417.559 136.786C417.559 136.015 417.858 135.391 418.456 134.914C419.063 134.437 419.873 134.199 420.887 134.199C421.858 134.199 422.646 134.429 423.253 134.888C423.868 135.347 424.293 135.889 424.527 136.513H423.253C423.08 136.149 422.776 135.854 422.343 135.629C421.91 135.404 421.411 135.291 420.848 135.291C420.198 135.291 419.682 135.43 419.301 135.707C418.92 135.984 418.729 136.327 418.729 136.734C418.729 137.505 419.262 137.943 420.328 138.047L421.953 138.216C422.75 138.303 423.37 138.554 423.812 138.97C424.263 139.386 424.488 139.919 424.488 140.569C424.488 141.262 424.185 141.869 423.578 142.389C422.971 142.909 422.135 143.169 421.069 143.169C420.029 143.169 419.201 142.948 418.586 142.506C417.971 142.055 417.55 141.505 417.325 140.855ZM429.158 136.851C429.964 136.851 430.597 137.094 431.056 137.579C431.524 138.064 431.758 138.697 431.758 139.477V143H430.64V139.568C430.64 139.057 430.506 138.649 430.237 138.346C429.969 138.043 429.57 137.891 429.041 137.891C428.53 137.891 428.084 138.073 427.702 138.437C427.33 138.801 427.143 139.286 427.143 139.893V143H426.025V134.303H427.143V137.67C427.603 137.124 428.274 136.851 429.158 136.851ZM433.732 137.02H434.85V143H433.732V137.02ZM433.641 135.655V134.303H434.941V135.655H433.641ZM438.334 143H437.216V138.008H436.111V137.02H437.216V136.227C437.216 135.594 437.398 135.118 437.762 134.797C438.135 134.468 438.655 134.303 439.322 134.303H440.245V135.291H439.426C439.045 135.291 438.767 135.386 438.594 135.577C438.421 135.768 438.334 136.062 438.334 136.461V137.02H440.245V138.008H438.334V143ZM441.994 135.382H443.112V137.02H445.023V138.008H443.112V140.842C443.112 141.241 443.199 141.535 443.372 141.726C443.545 141.917 443.823 142.012 444.204 142.012H445.023V143H444.1C443.433 143 442.913 142.84 442.54 142.519C442.176 142.19 441.994 141.709 441.994 141.076V138.008H440.889V137.02H441.994V135.382Z" fill="white"/>
<path d="M13.488 11.312C14.416 12.128 14.88 13.272 14.88 14.744C14.88 16.216 14.416 17.368 13.488 18.2C12.56 19.016 11.328 19.424 9.792 19.424H4.2V26H2.04V10.064H9.792C11.328 10.064 12.56 10.48 13.488 11.312ZM11.904 16.712C12.448 16.248 12.72 15.592 12.72 14.744C12.72 13.896 12.448 13.24 11.904 12.776C11.376 12.312 10.672 12.08 9.792 12.08H4.2V17.408H9.792C10.672 17.408 11.376 17.176 11.904 16.712ZM21.711 14.648C23.311 14.648 24.591 15.032 25.551 15.8C26.511 16.552 26.991 17.608 26.991 18.968V26H24.927V24.8C23.999 25.808 22.719 26.312 21.087 26.312C19.743 26.312 18.655 26 17.823 25.376C17.007 24.752 16.599 23.84 16.599 22.64C16.599 21.392 17.047 20.488 17.943 19.928C18.855 19.352 20.023 19.064 21.447 19.064H24.927C24.927 17.4 23.855 16.568 21.711 16.568C21.007 16.568 20.367 16.712 19.791 17C19.231 17.272 18.839 17.664 18.615 18.176H16.335C16.639 17.072 17.287 16.208 18.279 15.584C19.271 14.96 20.415 14.648 21.711 14.648ZM24.927 21.584V20.864H21.423C19.583 20.864 18.663 21.456 18.663 22.64C18.663 23.808 19.543 24.392 21.303 24.392C22.407 24.392 23.287 24.136 23.943 23.624C24.599 23.096 24.927 22.416 24.927 21.584ZM40.8321 18.176H38.5761C37.9521 17.104 36.9681 16.568 35.6241 16.568C34.5521 16.568 33.6641 16.944 32.9601 17.696C32.2721 18.432 31.9281 19.36 31.9281 20.48C31.9281 21.6 32.2721 22.536 32.9601 23.288C33.6641 24.024 34.5521 24.392 35.6241 24.392C36.9681 24.392 37.9521 23.856 38.5761 22.784H40.8321C40.4321 23.872 39.7681 24.736 38.8401 25.376C37.9121 26 36.8401 26.312 35.6241 26.312C33.9921 26.312 32.6241 25.76 31.5201 24.656C30.4161 23.536 29.8641 22.144 29.8641 20.48C29.8641 18.816 30.4161 17.432 31.5201 16.328C32.6241 15.208 33.9921 14.648 35.6241 14.648C36.8401 14.648 37.9121 14.968 38.8401 15.608C39.7681 16.232 40.4321 17.088 40.8321 18.176ZM43.8263 14.96H45.8903V19.784L51.1943 14.96H53.9543L47.8343 20.48L53.9543 26H51.1943L45.8903 21.464V26H43.8263V14.96ZM57.1875 14.96H66.0195V26H63.9555V16.784H59.2515V19.64C59.2515 20.312 59.2355 20.896 59.2035 21.392C59.1715 21.872 59.0755 22.432 58.9155 23.072C58.7715 23.696 58.5635 24.2 58.2915 24.584C58.0355 24.968 57.6595 25.304 57.1635 25.592C56.6675 25.864 56.0675 26 55.3635 26H54.6675V24.056H55.0995C55.5795 24.056 55.9715 23.928 56.2755 23.672C56.5795 23.416 56.7875 23.032 56.8995 22.52C57.0275 22.008 57.1075 21.56 57.1395 21.176C57.1715 20.792 57.1875 20.28 57.1875 19.64V14.96ZM74.2813 14.648C75.8813 14.648 77.1613 15.032 78.1213 15.8C79.0813 16.552 79.5613 17.608 79.5613 18.968V26H77.4973V24.8C76.5693 25.808 75.2893 26.312 73.6573 26.312C72.3133 26.312 71.2253 26 70.3933 25.376C69.5773 24.752 69.1693 23.84 69.1693 22.64C69.1693 21.392 69.6173 20.488 70.5133 19.928C71.4253 19.352 72.5933 19.064 74.0173 19.064H77.4973C77.4973 17.4 76.4253 16.568 74.2813 16.568C73.5773 16.568 72.9373 16.712 72.3613 17C71.8013 17.272 71.4093 17.664 71.1853 18.176H68.9053C69.2093 17.072 69.8573 16.208 70.8493 15.584C71.8413 14.96 72.9853 14.648 74.2813 14.648ZM77.4973 21.584V20.864H73.9933C72.1533 20.864 71.2333 21.456 71.2333 22.64C71.2333 23.808 72.1133 24.392 73.8733 24.392C74.9773 24.392 75.8573 24.136 76.5133 23.624C77.1693 23.096 77.4973 22.416 77.4973 21.584ZM95.1064 29.024H93.0424V26H83.7784V29.024H81.7144V24.176H83.0104C83.9224 23.328 84.3784 21.784 84.3784 19.544V14.96H93.3064V24.176H95.1064V29.024ZM86.4424 16.784V19.52C86.4424 21.584 86.1224 23.136 85.4824 24.176H91.2424V16.784H86.4424ZM97.9903 14.96H100.054V19.784L105.358 14.96H108.118L101.998 20.48L108.118 26H105.358L100.054 21.464V26H97.9903V14.96ZM114.688 14.648C116.288 14.648 117.568 15.032 118.528 15.8C119.488 16.552 119.968 17.608 119.968 18.968V26H117.904V24.8C116.976 25.808 115.696 26.312 114.064 26.312C112.72 26.312 111.632 26 110.8 25.376C109.984 24.752 109.576 23.84 109.576 22.64C109.576 21.392 110.024 20.488 110.92 19.928C111.832 19.352 113 19.064 114.424 19.064H117.904C117.904 17.4 116.832 16.568 114.688 16.568C113.984 16.568 113.344 16.712 112.768 17C112.208 17.272 111.816 17.664 111.592 18.176H109.312C109.616 17.072 110.264 16.208 111.256 15.584C112.248 14.96 113.392 14.648 114.688 14.648ZM117.904 21.584V20.864H114.4C112.56 20.864 111.64 21.456 111.64 22.64C111.64 23.808 112.52 24.392 114.28 24.392C115.384 24.392 116.264 24.136 116.92 23.624C117.576 23.096 117.904 22.416 117.904 21.584ZM129.092 14.96H131.156V19.784L136.46 14.96H139.22L133.1 20.48L139.22 26H136.46L131.156 21.464V26H129.092V14.96ZM142.453 14.96H151.285V26H149.221V16.784H144.517V19.64C144.517 20.312 144.501 20.896 144.469 21.392C144.437 21.872 144.341 22.432 144.181 23.072C144.037 23.696 143.829 24.2 143.557 24.584C143.301 24.968 142.925 25.304 142.429 25.592C141.933 25.864 141.333 26 140.629 26H139.933V24.056H140.365C140.845 24.056 141.237 23.928 141.541 23.672C141.845 23.416 142.053 23.032 142.165 22.52C142.293 22.008 142.373 21.56 142.405 21.176C142.437 20.792 142.453 20.28 142.453 19.64V14.96ZM159.547 14.648C161.147 14.648 162.427 15.032 163.387 15.8C164.347 16.552 164.827 17.608 164.827 18.968V26H162.763V24.8C161.835 25.808 160.555 26.312 158.923 26.312C157.579 26.312 156.491 26 155.659 25.376C154.843 24.752 154.435 23.84 154.435 22.64C154.435 21.392 154.883 20.488 155.779 19.928C156.691 19.352 157.859 19.064 159.283 19.064H162.763C162.763 17.4 161.691 16.568 159.547 16.568C158.843 16.568 158.203 16.712 157.627 17C157.067 17.272 156.675 17.664 156.451 18.176H154.171C154.475 17.072 155.123 16.208 156.115 15.584C157.107 14.96 158.251 14.648 159.547 14.648ZM162.763 21.584V20.864H159.259C157.419 20.864 156.499 21.456 156.499 22.64C156.499 23.808 157.379 24.392 159.139 24.392C160.243 24.392 161.123 24.136 161.779 23.624C162.435 23.096 162.763 22.416 162.763 21.584ZM177.108 20.48C178.132 21.008 178.644 21.856 178.644 23.024C178.644 23.888 178.34 24.6 177.732 25.16C177.14 25.72 176.268 26 175.116 26H168.42V14.96H175.02C176.172 14.96 177.044 15.24 177.636 15.8C178.244 16.344 178.548 17.056 178.548 17.936C178.548 19.088 178.068 19.936 177.108 20.48ZM170.484 24.176H174.9C176.02 24.176 176.58 23.712 176.58 22.784C176.58 21.856 176.02 21.392 174.9 21.392H170.484V24.176ZM170.484 19.568H174.804C175.924 19.568 176.484 19.104 176.484 18.176C176.484 17.248 175.924 16.784 174.804 16.784H170.484V19.568ZM183.82 26H181.756V14.96H183.82V23L190.276 14.96H192.34V26H190.276V17.96L183.82 26ZM200.586 14.648C202.186 14.648 203.466 15.032 204.426 15.8C205.386 16.552 205.866 17.608 205.866 18.968V26H203.802V24.8C202.874 25.808 201.594 26.312 199.962 26.312C198.618 26.312 197.53 26 196.698 25.376C195.882 24.752 195.474 23.84 195.474 22.64C195.474 21.392 195.922 20.488 196.818 19.928C197.73 19.352 198.898 19.064 200.322 19.064H203.802C203.802 17.4 202.73 16.568 200.586 16.568C199.882 16.568 199.242 16.712 198.666 17C198.106 17.272 197.714 17.664 197.49 18.176H195.21C195.514 17.072 196.162 16.208 197.154 15.584C198.146 14.96 199.29 14.648 200.586 14.648ZM203.802 21.584V20.864H200.298C198.458 20.864 197.538 21.456 197.538 22.64C197.538 23.808 198.418 24.392 200.178 24.392C201.282 24.392 202.162 24.136 202.818 23.624C203.474 23.096 203.802 22.416 203.802 21.584ZM207.878 16.784V14.96H218.486V16.784H214.214V26H212.15V16.784H207.878ZM224.629 25.856L219.757 14.96H222.085L225.781 23.288L229.501 14.96H231.685L226.477 26.6C225.725 28.328 225.181 29.4 224.845 29.816C224.333 30.472 223.573 30.824 222.565 30.872C222.421 30.888 222.253 30.896 222.061 30.896H221.005V29.072H221.677C222.317 29.072 222.797 28.928 223.117 28.64C223.437 28.352 223.789 27.776 224.173 26.912L224.629 25.856ZM235.992 30.896H233.928V14.96H235.992V16.16C236.904 15.152 238.144 14.648 239.712 14.648C241.456 14.648 242.824 15.216 243.816 16.352C244.808 17.488 245.304 18.864 245.304 20.48C245.304 22.096 244.808 23.472 243.816 24.608C242.824 25.744 241.456 26.312 239.712 26.312C238.144 26.312 236.904 25.808 235.992 24.8V30.896ZM237 17.6C236.28 18.272 235.92 19.232 235.92 20.48C235.92 21.728 236.28 22.696 237 23.384C237.736 24.056 238.616 24.392 239.64 24.392C240.68 24.392 241.536 24.016 242.208 23.264C242.896 22.496 243.24 21.568 243.24 20.48C243.24 19.392 242.896 18.472 242.208 17.72C241.536 16.952 240.68 16.568 239.64 16.568C238.616 16.568 237.736 16.912 237 17.6ZM259.86 14.96H261.924V26H259.86V14.96ZM250.476 18.608H253.836C255.196 18.608 256.228 18.96 256.932 19.664C257.636 20.352 257.988 21.232 257.988 22.304C257.988 23.376 257.636 24.264 256.932 24.968C256.228 25.656 255.196 26 253.836 26H248.412V14.96H250.476V18.608ZM250.476 24.176H253.764C254.452 24.176 254.98 24.016 255.348 23.696C255.732 23.376 255.924 22.912 255.924 22.304C255.924 21.696 255.732 21.232 255.348 20.912C254.98 20.592 254.452 20.432 253.764 20.432H250.476V24.176Z" fill="white"/>
<path d="M2.682 123.378L0.72 122.244L1.332 121.164L3.294 122.316V120.048H4.536V122.316L6.48 121.164L7.11 122.244L5.13 123.378L7.11 124.494L6.48 125.574L4.536 124.44V126.69H3.294V124.44L1.332 125.574L0.72 124.494L2.682 123.378ZM20.7283 134.646H19.1083V132H9.76627V134.646H8.14627V130.488H9.31627C10.2523 129.6 10.7203 127.914 10.7203 125.43V120.048H19.1083V130.488H20.7283V134.646ZM12.3403 121.56V125.412C12.3403 127.668 11.9923 129.36 11.2963 130.488H17.4883V121.56H12.3403ZM24.1523 123.72H30.7763V132H29.2283V125.088H25.7003V127.23C25.7003 127.734 25.6883 128.172 25.6643 128.544C25.6403 128.904 25.5683 129.324 25.4483 129.804C25.3403 130.272 25.1843 130.65 24.9803 130.938C24.7883 131.226 24.5063 131.478 24.1343 131.694C23.7623 131.898 23.3123 132 22.7843 132H22.2623V130.542H22.5863C22.9463 130.542 23.2403 130.446 23.4683 130.254C23.6963 130.062 23.8523 129.774 23.9363 129.39C24.0323 129.006 24.0923 128.67 24.1163 128.382C24.1403 128.094 24.1523 127.71 24.1523 127.23V123.72ZM38.8447 129.264H36.9187L34.5787 132H32.5447L35.0107 129.12C34.3507 128.94 33.8527 128.616 33.5167 128.148C33.1927 127.68 33.0307 127.128 33.0307 126.492C33.0307 125.688 33.2947 125.028 33.8227 124.512C34.3507 123.984 35.1247 123.72 36.1447 123.72H40.3927V132H38.8447V129.264ZM38.8447 125.088H36.1987C35.6827 125.088 35.2807 125.208 34.9927 125.448C34.7167 125.688 34.5787 126.036 34.5787 126.492C34.5787 126.948 34.7167 127.296 34.9927 127.536C35.2807 127.776 35.6827 127.896 36.1987 127.896H38.8447V125.088ZM55.1104 126.132H53.4184C52.9504 125.328 52.2124 124.926 51.2044 124.926C50.4004 124.926 49.7344 125.208 49.2064 125.772C48.6904 126.324 48.4324 127.02 48.4324 127.86C48.4324 128.7 48.6904 129.402 49.2064 129.966C49.7344 130.518 50.4004 130.794 51.2044 130.794C52.2124 130.794 52.9504 130.392 53.4184 129.588H55.1104C54.8104 130.404 54.3124 131.052 53.6164 131.532C52.9204 132 52.1164 132.234 51.2044 132.234C49.9804 132.234 48.9544 131.82 48.1264 130.992C47.2984 130.152 46.8844 129.108 46.8844 127.86C46.8844 126.612 47.2984 125.574 48.1264 124.746C48.9544 123.906 49.9804 123.486 51.2044 123.486C52.1164 123.486 52.9204 123.726 53.6164 124.206C54.3124 124.674 54.8104 125.316 55.1104 126.132ZM65.834 126.528L63.152 132H61.586L58.904 126.528V132H57.356V123.72H59.12L62.378 130.38L65.654 123.72H67.382V132H65.834V126.528ZM74.0564 130.794C75.0884 130.794 75.8204 130.422 76.2524 129.678H77.9264C77.6384 130.47 77.1464 131.094 76.4504 131.55C75.7664 132.006 74.9684 132.234 74.0564 132.234C72.8084 132.234 71.7704 131.82 70.9424 130.992C70.1264 130.164 69.7184 129.114 69.7184 127.842C69.7184 126.594 70.1144 125.556 70.9064 124.728C71.7104 123.9 72.7304 123.486 73.9664 123.486C75.1304 123.486 76.0964 123.9 76.8644 124.728C77.6444 125.544 78.0344 126.552 78.0344 127.752C78.0344 128.1 78.0224 128.328 77.9984 128.436H71.3204C71.4164 129.12 71.7164 129.684 72.2204 130.128C72.7364 130.572 73.3484 130.794 74.0564 130.794ZM73.9664 124.926C73.2584 124.926 72.6644 125.124 72.1844 125.52C71.7164 125.904 71.4344 126.426 71.3384 127.086H76.4144C76.3184 126.426 76.0544 125.904 75.6224 125.52C75.1904 125.124 74.6384 124.926 73.9664 124.926ZM86.7558 123.72H88.3038V132H86.7558V128.508H81.9138V132H80.3658V123.72H81.9138V127.14H86.7558V123.72ZM99.7623 123.72H101.31V132H99.7623V123.72ZM92.7243 126.456H95.2443C96.2643 126.456 97.0383 126.72 97.5663 127.248C98.0943 127.764 98.3583 128.424 98.3583 129.228C98.3583 130.032 98.0943 130.698 97.5663 131.226C97.0383 131.742 96.2643 132 95.2443 132H91.1763V123.72H92.7243V126.456ZM92.7243 130.632H95.1903C95.7063 130.632 96.1023 130.512 96.3783 130.272C96.6663 130.032 96.8103 129.684 96.8103 129.228C96.8103 128.772 96.6663 128.424 96.3783 128.184C96.1023 127.944 95.7063 127.824 95.1903 127.824H92.7243V130.632ZM109.881 135.672H108.333V123.72H109.881V124.62C110.565 123.864 111.495 123.486 112.671 123.486C113.979 123.486 115.005 123.912 115.749 124.764C116.493 125.616 116.865 126.648 116.865 127.86C116.865 129.072 116.493 130.104 115.749 130.956C115.005 131.808 113.979 132.234 112.671 132.234C111.495 132.234 110.565 131.856 109.881 131.1V135.672ZM110.637 125.7C110.097 126.204 109.827 126.924 109.827 127.86C109.827 128.796 110.097 129.522 110.637 130.038C111.189 130.542 111.849 130.794 112.617 130.794C113.397 130.794 114.039 130.512 114.543 129.948C115.059 129.372 115.317 128.676 115.317 127.86C115.317 127.044 115.059 126.354 114.543 125.79C114.039 125.214 113.397 124.926 112.617 124.926C111.849 124.926 111.189 125.184 110.637 125.7ZM122.508 123.486C123.708 123.486 124.668 123.774 125.388 124.35C126.108 124.914 126.468 125.706 126.468 126.726V132H124.92V131.1C124.224 131.856 123.264 132.234 122.04 132.234C121.032 132.234 120.216 132 119.592 131.532C118.98 131.064 118.674 130.38 118.674 129.48C118.674 128.544 119.01 127.866 119.682 127.446C120.366 127.014 121.242 126.798 122.31 126.798H124.92C124.92 125.55 124.116 124.926 122.508 124.926C121.98 124.926 121.5 125.034 121.068 125.25C120.648 125.454 120.354 125.748 120.186 126.132H118.476C118.704 125.304 119.19 124.656 119.934 124.188C120.678 123.72 121.536 123.486 122.508 123.486ZM124.92 128.688V128.148H122.292C120.912 128.148 120.222 128.592 120.222 129.48C120.222 130.356 120.882 130.794 122.202 130.794C123.03 130.794 123.69 130.602 124.182 130.218C124.674 129.822 124.92 129.312 124.92 128.688ZM136.849 126.132H135.157C134.689 125.328 133.951 124.926 132.943 124.926C132.139 124.926 131.473 125.208 130.945 125.772C130.429 126.324 130.171 127.02 130.171 127.86C130.171 128.7 130.429 129.402 130.945 129.966C131.473 130.518 132.139 130.794 132.943 130.794C133.951 130.794 134.689 130.392 135.157 129.588H136.849C136.549 130.404 136.051 131.052 135.355 131.532C134.659 132 133.855 132.234 132.943 132.234C131.719 132.234 130.693 131.82 129.865 130.992C129.037 130.152 128.623 129.108 128.623 127.86C128.623 126.612 129.037 125.574 129.865 124.746C130.693 123.906 131.719 123.486 132.943 123.486C133.855 123.486 134.659 123.726 135.355 124.206C136.051 124.674 136.549 125.316 136.849 126.132ZM139.094 123.72H140.642V127.338L144.62 123.72H146.69L142.1 127.86L146.69 132H144.62L140.642 128.598V132H139.094V123.72ZM149.115 123.72H155.739V132H154.191V125.088H150.663V127.23C150.663 127.734 150.651 128.172 150.627 128.544C150.603 128.904 150.531 129.324 150.411 129.804C150.303 130.272 150.147 130.65 149.943 130.938C149.751 131.226 149.469 131.478 149.097 131.694C148.725 131.898 148.275 132 147.747 132H147.225V130.542H147.549C147.909 130.542 148.203 130.446 148.431 130.254C148.659 130.062 148.815 129.774 148.899 129.39C148.995 129.006 149.055 128.67 149.079 128.382C149.103 128.094 149.115 127.71 149.115 127.23V123.72ZM161.936 123.486C163.136 123.486 164.096 123.774 164.816 124.35C165.536 124.914 165.896 125.706 165.896 126.726V132H164.348V131.1C163.652 131.856 162.692 132.234 161.468 132.234C160.46 132.234 159.644 132 159.02 131.532C158.408 131.064 158.102 130.38 158.102 129.48C158.102 128.544 158.438 127.866 159.11 127.446C159.794 127.014 160.67 126.798 161.738 126.798H164.348C164.348 125.55 163.544 124.926 161.936 124.926C161.408 124.926 160.928 125.034 160.496 125.25C160.076 125.454 159.782 125.748 159.614 126.132H157.904C158.132 125.304 158.618 124.656 159.362 124.188C160.106 123.72 160.964 123.486 161.936 123.486ZM164.348 128.688V128.148H161.72C160.34 128.148 159.65 128.592 159.65 129.48C159.65 130.356 160.31 130.794 161.63 130.794C162.458 130.794 163.118 130.602 163.61 130.218C164.102 129.822 164.348 129.312 164.348 128.688ZM177.554 134.268H176.006V132H169.058V134.268H167.51V130.632H168.482C169.166 129.996 169.508 128.838 169.508 127.158V123.72H176.204V130.632H177.554V134.268ZM171.056 125.088V127.14C171.056 128.688 170.816 129.852 170.336 130.632H174.656V125.088H171.056ZM179.717 123.72H181.265V127.338L185.243 123.72H187.313L182.723 127.86L187.313 132H185.243L181.265 128.598V132H179.717V123.72ZM190.476 132H188.928V123.72H190.476V129.75L195.318 123.72H196.866V132H195.318V125.97L190.476 132ZM210.403 127.86C211.171 128.256 211.555 128.892 211.555 129.768C211.555 130.416 211.327 130.95 210.871 131.37C210.427 131.79 209.773 132 208.909 132H203.887V123.72H208.837C209.701 123.72 210.355 123.93 210.799 124.35C211.255 124.758 211.483 125.292 211.483 125.952C211.483 126.816 211.123 127.452 210.403 127.86ZM205.435 130.632H208.747C209.587 130.632 210.007 130.284 210.007 129.588C210.007 128.892 209.587 128.544 208.747 128.544H205.435V130.632ZM205.435 127.176H208.675C209.515 127.176 209.935 126.828 209.935 126.132C209.935 125.436 209.515 125.088 208.675 125.088H205.435V127.176ZM220.405 127.86C221.173 128.256 221.557 128.892 221.557 129.768C221.557 130.416 221.329 130.95 220.873 131.37C220.429 131.79 219.775 132 218.911 132H213.889V123.72H218.839C219.703 123.72 220.357 123.93 220.801 124.35C221.257 124.758 221.485 125.292 221.485 125.952C221.485 126.816 221.125 127.452 220.405 127.86ZM215.437 130.632H218.749C219.589 130.632 220.009 130.284 220.009 129.588C220.009 128.892 219.589 128.544 218.749 128.544H215.437V130.632ZM215.437 127.176H218.677C219.517 127.176 219.937 126.828 219.937 126.132C219.937 125.436 219.517 125.088 218.677 125.088H215.437V127.176ZM227.689 123.486C228.925 123.486 229.957 123.906 230.785 124.746C231.613 125.574 232.027 126.612 232.027 127.86C232.027 129.108 231.613 130.152 230.785 130.992C229.957 131.82 228.925 132.234 227.689 132.234C226.441 132.234 225.403 131.82 224.575 130.992C223.759 130.152 223.351 129.108 223.351 127.86C223.351 126.612 223.759 125.574 224.575 124.746C225.403 123.906 226.441 123.486 227.689 123.486ZM225.691 129.948C226.219 130.512 226.885 130.794 227.689 130.794C228.493 130.794 229.159 130.512 229.687 129.948C230.215 129.384 230.479 128.688 230.479 127.86C230.479 127.02 230.215 126.324 229.687 125.772C229.171 125.208 228.505 124.926 227.689 124.926C226.873 124.926 226.201 125.208 225.673 125.772C225.157 126.324 224.899 127.02 224.899 127.86C224.899 128.688 225.163 129.384 225.691 129.948ZM243.332 134.268H241.784V132H234.836V134.268H233.288V130.632H234.26C234.944 129.996 235.286 128.838 235.286 127.158V123.72H241.982V130.632H243.332V134.268ZM236.834 125.088V127.14C236.834 128.688 236.594 129.852 236.114 130.632H240.434V125.088H236.834ZM248.807 123.486C250.007 123.486 250.967 123.774 251.687 124.35C252.407 124.914 252.767 125.706 252.767 126.726V132H251.219V131.1C250.523 131.856 249.563 132.234 248.339 132.234C247.331 132.234 246.515 132 245.891 131.532C245.279 131.064 244.973 130.38 244.973 129.48C244.973 128.544 245.309 127.866 245.981 127.446C246.665 127.014 247.541 126.798 248.609 126.798H251.219C251.219 125.55 250.415 124.926 248.807 124.926C248.279 124.926 247.799 125.034 247.367 125.25C246.947 125.454 246.653 125.748 246.485 126.132H244.775C245.003 125.304 245.489 124.656 246.233 124.188C246.977 123.72 247.835 123.486 248.807 123.486ZM251.219 128.688V128.148H248.591C247.211 128.148 246.521 128.592 246.521 129.48C246.521 130.356 247.181 130.794 248.501 130.794C249.329 130.794 249.989 130.602 250.481 130.218C250.973 129.822 251.219 129.312 251.219 128.688ZM6.624 154.264H4.698L2.358 157H0.324L2.79 154.12C2.13 153.94 1.632 153.616 1.296 153.148C0.972 152.68 0.81 152.128 0.81 151.492C0.81 150.688 1.074 150.028 1.602 149.512C2.13 148.984 2.904 148.72 3.924 148.72H8.172V157H6.624V154.264ZM6.624 150.088H3.978C3.462 150.088 3.06 150.208 2.772 150.448C2.496 150.688 2.358 151.036 2.358 151.492C2.358 151.948 2.496 152.296 2.772 152.536C3.06 152.776 3.462 152.896 3.978 152.896H6.624V150.088ZM18.2192 151.132C18.2192 151.888 17.8592 152.464 17.1392 152.86C17.8952 153.292 18.2732 153.886 18.2732 154.642C18.2732 155.374 17.9192 155.992 17.2112 156.496C16.5032 156.988 15.5972 157.234 14.4932 157.234C13.3772 157.234 12.4652 156.988 11.7572 156.496C11.0492 155.992 10.6052 155.356 10.4252 154.588H12.1892C12.5372 155.392 13.3532 155.794 14.6372 155.794C15.2252 155.794 15.7172 155.686 16.1132 155.47C16.5212 155.242 16.7252 154.936 16.7252 154.552C16.7252 154.228 16.6052 153.982 16.3652 153.814C16.1372 153.634 15.8252 153.544 15.4292 153.544H13.4312V152.176H15.3932C15.7892 152.176 16.1012 152.092 16.3292 151.924C16.5572 151.744 16.6712 151.492 16.6712 151.168C16.6712 150.784 16.4732 150.478 16.0772 150.25C15.6812 150.022 15.1832 149.908 14.5832 149.908C13.3592 149.908 12.5672 150.286 12.2072 151.042H10.4972C10.7132 150.286 11.1572 149.674 11.8292 149.206C12.5012 148.726 13.4132 148.486 14.5652 148.486C15.5012 148.486 16.3412 148.708 17.0852 149.152C17.8412 149.596 18.2192 150.256 18.2192 151.132ZM29.2916 148.72H30.8396V157H29.2916V148.72ZM22.2536 151.456H24.7736C25.7936 151.456 26.5676 151.72 27.0956 152.248C27.6236 152.764 27.8876 153.424 27.8876 154.228C27.8876 155.032 27.6236 155.698 27.0956 156.226C26.5676 156.742 25.7936 157 24.7736 157H20.7056V148.72H22.2536V151.456ZM22.2536 155.632H24.7196C25.2356 155.632 25.6316 155.512 25.9076 155.272C26.1956 155.032 26.3396 154.684 26.3396 154.228C26.3396 153.772 26.1956 153.424 25.9076 153.184C25.6316 152.944 25.2356 152.824 24.7196 152.824H22.2536V155.632ZM33.7134 148.72H35.2614V152.338L39.2394 148.72H41.3094L36.7194 152.86L41.3094 157H39.2394L35.2614 153.598V157H33.7134V148.72ZM46.2364 148.486C47.4364 148.486 48.3964 148.774 49.1164 149.35C49.8364 149.914 50.1964 150.706 50.1964 151.726V157H48.6484V156.1C47.9524 156.856 46.9924 157.234 45.7684 157.234C44.7604 157.234 43.9444 157 43.3204 156.532C42.7084 156.064 42.4024 155.38 42.4024 154.48C42.4024 153.544 42.7384 152.866 43.4104 152.446C44.0944 152.014 44.9704 151.798 46.0384 151.798H48.6484C48.6484 150.55 47.8444 149.926 46.2364 149.926C45.7084 149.926 45.2284 150.034 44.7964 150.25C44.3764 150.454 44.0824 150.748 43.9144 151.132H42.2044C42.4324 150.304 42.9184 149.656 43.6624 149.188C44.4064 148.72 45.2644 148.486 46.2364 148.486ZM48.6484 153.688V153.148H46.0204C44.6404 153.148 43.9504 153.592 43.9504 154.48C43.9504 155.356 44.6104 155.794 45.9304 155.794C46.7584 155.794 47.4184 155.602 47.9104 155.218C48.4024 154.822 48.6484 154.312 48.6484 153.688ZM63.4296 148.72H64.9776V157H63.4296V153.508H58.5876V157H57.0396V148.72H58.5876V152.14H63.4296V148.72ZM71.1622 148.486C72.3622 148.486 73.3222 148.774 74.0422 149.35C74.7622 149.914 75.1222 150.706 75.1222 151.726V157H73.5742V156.1C72.8782 156.856 71.9182 157.234 70.6942 157.234C69.6862 157.234 68.8702 157 68.2462 156.532C67.6342 156.064 67.3282 155.38 67.3282 154.48C67.3282 153.544 67.6642 152.866 68.3362 152.446C69.0202 152.014 69.8962 151.798 70.9642 151.798H73.5742C73.5742 150.55 72.7702 149.926 71.1622 149.926C70.6342 149.926 70.1542 150.034 69.7222 150.25C69.3022 150.454 69.0082 150.748 68.8402 151.132H67.1302C67.3582 150.304 67.8442 149.656 68.5882 149.188C69.3322 148.72 70.1902 148.486 71.1622 148.486ZM73.5742 153.688V153.148H70.9462C69.5662 153.148 68.8762 153.592 68.8762 154.48C68.8762 155.356 69.5362 155.794 70.8562 155.794C71.6842 155.794 72.3442 155.602 72.8362 155.218C73.3282 154.822 73.5742 154.312 73.5742 153.688ZM82.047 148.72H83.595V152.23L87.123 148.72H89.085L84.909 152.896L89.085 157H87.015L83.595 153.652V157H82.047V153.652L78.627 157H76.557L80.733 152.896L76.557 148.72H78.519L82.047 152.23V148.72ZM99.1797 151.528L96.4977 157H94.9317L92.2497 151.528V157H90.7017V148.72H92.4657L95.7237 155.38L98.9997 148.72H100.728V157H99.1797V151.528ZM105.152 157H103.604V148.72H105.152V154.75L109.994 148.72H111.542V157H109.994V150.97L105.152 157ZM113.335 150.088V148.72H121.291V150.088H118.087V157H116.539V150.088H113.335ZM126.756 155.794C127.788 155.794 128.52 155.422 128.952 154.678H130.626C130.338 155.47 129.846 156.094 129.15 156.55C128.466 157.006 127.668 157.234 126.756 157.234C125.508 157.234 124.47 156.82 123.642 155.992C122.826 155.164 122.418 154.114 122.418 152.842C122.418 151.594 122.814 150.556 123.606 149.728C124.41 148.9 125.43 148.486 126.666 148.486C127.83 148.486 128.796 148.9 129.564 149.728C130.344 150.544 130.734 151.552 130.734 152.752C130.734 153.1 130.722 153.328 130.698 153.436H124.02C124.116 154.12 124.416 154.684 124.92 155.128C125.436 155.572 126.048 155.794 126.756 155.794ZM126.666 149.926C125.958 149.926 125.364 150.124 124.884 150.52C124.416 150.904 124.134 151.426 124.038 152.086H129.114C129.018 151.426 128.754 150.904 128.322 150.52C127.89 150.124 127.338 149.926 126.666 149.926ZM137.213 148.72H138.761V152.338L142.739 148.72H144.809L140.219 152.86L144.809 157H142.739L138.761 153.598V157H137.213V148.72ZM150.047 148.486C151.283 148.486 152.315 148.906 153.143 149.746C153.971 150.574 154.385 151.612 154.385 152.86C154.385 154.108 153.971 155.152 153.143 155.992C152.315 156.82 151.283 157.234 150.047 157.234C148.799 157.234 147.761 156.82 146.933 155.992C146.117 155.152 145.709 154.108 145.709 152.86C145.709 151.612 146.117 150.574 146.933 149.746C147.761 148.906 148.799 148.486 150.047 148.486ZM148.049 154.948C148.577 155.512 149.243 155.794 150.047 155.794C150.851 155.794 151.517 155.512 152.045 154.948C152.573 154.384 152.837 153.688 152.837 152.86C152.837 152.02 152.573 151.324 152.045 150.772C151.529 150.208 150.863 149.926 150.047 149.926C149.231 149.926 148.559 150.208 148.031 150.772C147.515 151.324 147.257 152.02 147.257 152.86C147.257 153.688 147.521 154.384 148.049 154.948ZM165.203 151.528L162.521 157H160.955L158.273 151.528V157H156.725V148.72H158.489L161.747 155.38L165.023 148.72H166.751V157H165.203V151.528ZM173.696 148.774C174.884 148.774 175.88 149.188 176.684 150.016C177.5 150.832 177.908 151.834 177.908 153.022C177.908 154.198 177.494 155.194 176.666 156.01C175.838 156.826 174.806 157.234 173.57 157.234C172.19 157.234 171.128 156.772 170.384 155.848C169.64 154.924 169.268 153.706 169.268 152.194C169.268 150.262 169.538 148.804 170.078 147.82C170.618 146.824 171.566 146.254 172.922 146.11L174.632 145.93C175.508 145.834 176 145.51 176.108 144.958H177.656C177.608 145.582 177.38 146.104 176.972 146.524C176.576 146.932 175.982 147.184 175.19 147.28L173.048 147.496C171.668 147.652 170.912 148.51 170.78 150.07C171.452 149.206 172.424 148.774 173.696 148.774ZM173.57 155.794C174.374 155.794 175.04 155.53 175.568 155.002C176.096 154.462 176.36 153.802 176.36 153.022C176.36 152.218 176.096 151.546 175.568 151.006C175.052 150.466 174.386 150.196 173.57 150.196C172.778 150.196 172.118 150.466 171.59 151.006C171.074 151.546 170.816 152.218 170.816 153.022C170.816 153.802 171.074 154.462 171.59 155.002C172.118 155.53 172.778 155.794 173.57 155.794ZM181.793 157H180.245V148.72H181.793V154.75L186.635 148.72H188.183V157H186.635V150.97L181.793 157ZM197.445 148.72H198.993V157H197.445V153.508H192.603V157H191.055V148.72H192.603V152.14H197.445V148.72ZM205.178 148.486C206.378 148.486 207.338 148.774 208.058 149.35C208.778 149.914 209.138 150.706 209.138 151.726V157H207.59V156.1C206.894 156.856 205.934 157.234 204.71 157.234C203.702 157.234 202.886 157 202.262 156.532C201.65 156.064 201.344 155.38 201.344 154.48C201.344 153.544 201.68 152.866 202.352 152.446C203.036 152.014 203.912 151.798 204.98 151.798H207.59C207.59 150.55 206.786 149.926 205.178 149.926C204.65 149.926 204.17 150.034 203.738 150.25C203.318 150.454 203.024 150.748 202.856 151.132H201.146C201.374 150.304 201.86 149.656 202.604 149.188C203.348 148.72 204.206 148.486 205.178 148.486ZM207.59 153.688V153.148H204.962C203.582 153.148 202.892 153.592 202.892 154.48C202.892 155.356 203.552 155.794 204.872 155.794C205.7 155.794 206.36 155.602 206.852 155.218C207.344 154.822 207.59 154.312 207.59 153.688ZM220.977 159.268H219.429V157H211.833V148.72H213.381V155.632H218.079V148.72H219.627V155.632H220.977V159.268ZM224.683 157H223.135V148.72H224.683V154.75L229.525 148.72H231.073V157H229.525V150.97L224.683 157ZM235.494 152.14H237.204C237.348 151.072 237.81 150.196 238.59 149.512C239.37 148.828 240.306 148.486 241.398 148.486C242.61 148.486 243.618 148.906 244.422 149.746C245.238 150.574 245.646 151.612 245.646 152.86C245.646 154.108 245.238 155.152 244.422 155.992C243.618 156.82 242.61 157.234 241.398 157.234C240.294 157.234 239.352 156.886 238.572 156.19C237.792 155.494 237.33 154.6 237.186 153.508H235.494V157H233.946V148.72H235.494V152.14ZM239.454 154.948C239.958 155.512 240.606 155.794 241.398 155.794C242.19 155.794 242.838 155.512 243.342 154.948C243.846 154.384 244.098 153.688 244.098 152.86C244.098 152.02 243.846 151.324 243.342 150.772C242.838 150.208 242.19 149.926 241.398 149.926C240.606 149.926 239.958 150.208 239.454 150.772C238.95 151.324 238.698 152.02 238.698 152.86C238.698 153.688 238.95 154.384 239.454 154.948ZM252.139 148.72H253.687V152.338L257.665 148.72H259.735L255.145 152.86L259.735 157H257.665L253.687 153.598V157H252.139V148.72ZM262.16 148.72H268.784V157H267.236V150.088H263.708V152.23C263.708 152.734 263.696 153.172 263.672 153.544C263.648 153.904 263.576 154.324 263.456 154.804C263.348 155.272 263.192 155.65 262.988 155.938C262.796 156.226 262.514 156.478 262.142 156.694C261.77 156.898 261.32 157 260.792 157H260.27V155.542H260.594C260.954 155.542 261.248 155.446 261.476 155.254C261.704 155.062 261.86 154.774 261.944 154.39C262.04 154.006 262.1 153.67 262.124 153.382C262.148 153.094 262.16 152.71 262.16 152.23V148.72ZM274.981 148.486C276.181 148.486 277.141 148.774 277.861 149.35C278.581 149.914 278.941 150.706 278.941 151.726V157H277.393V156.1C276.697 156.856 275.737 157.234 274.513 157.234C273.505 157.234 272.689 157 272.065 156.532C271.453 156.064 271.147 155.38 271.147 154.48C271.147 153.544 271.483 152.866 272.155 152.446C272.839 152.014 273.715 151.798 274.783 151.798H277.393C277.393 150.55 276.589 149.926 274.981 149.926C274.453 149.926 273.973 150.034 273.541 150.25C273.121 150.454 272.827 150.748 272.659 151.132H270.949C271.177 150.304 271.663 149.656 272.407 149.188C273.151 148.72 274.009 148.486 274.981 148.486ZM277.393 153.688V153.148H274.765C273.385 153.148 272.695 153.592 272.695 154.48C272.695 155.356 273.355 155.794 274.675 155.794C275.503 155.794 276.163 155.602 276.655 155.218C277.147 154.822 277.393 154.312 277.393 153.688ZM288.151 152.86C288.919 153.256 289.303 153.892 289.303 154.768C289.303 155.416 289.075 155.95 288.619 156.37C288.175 156.79 287.521 157 286.657 157H281.635V148.72H286.585C287.449 148.72 288.103 148.93 288.547 149.35C289.003 149.758 289.231 150.292 289.231 150.952C289.231 151.816 288.871 152.452 288.151 152.86ZM283.183 155.632H286.495C287.335 155.632 287.755 155.284 287.755 154.588C287.755 153.892 287.335 153.544 286.495 153.544H283.183V155.632ZM283.183 152.176H286.423C287.263 152.176 287.683 151.828 287.683 151.132C287.683 150.436 287.263 150.088 286.423 150.088H283.183V152.176ZM293.185 157H291.637V148.72H293.185V154.75L298.027 148.72H299.575V157H298.027V150.97L293.185 157ZM314.328 157H302.448V148.72H303.996V155.632H307.614V148.72H309.162V155.632H312.78V148.72H314.328V157Z" fill="#5C5C5C"/>
</svg>
