<svg width="324" height="78" viewBox="0 0 324 78" fill="none" xmlns="http://www.w3.org/2000/svg">
<rect x="2.00024" y="2.00085" width="320" height="73.9983" stroke="#B42A40" stroke-width="4"/>
<path d="M62.1223 42.3996V45.9996H57.3223V35.1996H62.1223V37.5996H68.6023V33.9996H55.5223V29.1996H71.0023L73.4023 31.5996V39.9996L71.0023 42.3996H62.1223ZM78.1977 45.9996L75.7977 43.5996V31.5996L78.1977 29.1996H91.2777L93.6777 31.5996V37.5996L91.2777 39.9996H81.7977V35.1996H88.8777V33.9996H80.5977V41.1996H93.0777V45.9996H78.1977ZM110.159 36.3996L107.759 33.9996H101.591V45.9996H96.7911V33.9996H94.9911V29.1996H112.391V36.3996H110.159ZM125.837 45.9996V37.2396L119.357 45.9996H114.557V33.9996H112.757V29.1996H119.357V37.9596L125.837 29.1996H130.637V45.9996H125.837ZM135.432 45.9996L133.032 43.5996V31.5996L135.432 29.1996H148.512L150.912 31.5996V36.3996H146.112V33.9996H137.832V41.1996H150.312V45.9996H135.432ZM158.849 45.9996V33.9996H152.225V29.1996H170.273V33.9996H163.649V45.9996H158.849ZM177.107 42.3996V45.9996H172.307V35.1996H177.107V37.5996H183.587V33.9996H170.507V29.1996H185.987L188.387 31.5996V39.9996L185.987 42.3996H177.107ZM206.262 45.9996L203.862 43.5996V39.9996H195.582V41.1996H202.662V45.9996H193.182L190.782 43.5996V37.5996L193.182 35.1996H203.862V33.9996H191.382V29.1996H206.262L208.662 31.5996V45.9996H206.262ZM228.623 49.5996L225.023 45.9996H211.775V33.9996H209.975V29.1996H216.575V41.1996H224.255V29.1996H229.055V41.1996H230.855V49.5996H228.623ZM244.173 45.9996V37.2396L237.693 45.9996H232.893V33.9996H231.093V29.1996H237.693V37.9596L244.173 29.1996H248.973V45.9996H244.173ZM262.888 45.9996V42.3996H259.84L256.24 45.9996H250.408L254.008 42.3996L251.608 39.9996V31.5996L254.008 29.1996H269.488V33.9996H256.408V37.5996H262.888V35.1996H267.688V45.9996H262.888Z" fill="#B42A40"/>
</svg>
