<svg width="699" height="70" viewBox="0 0 699 70" fill="none" xmlns="http://www.w3.org/2000/svg">
<rect y="6.10352e-05" width="369" height="70" fill="#1D2731"/>
<rect x="369" y="6.10352e-05" width="330" height="70" fill="#161D24"/>
<path d="M407 48.0001V40.0001H427.2V38.0001H411L407 34.0001V24.0001L411 20.0001H435.2V28.0001H415V30.0001H431.2L435.2 34.0001V44.0001L431.2 48.0001H407ZM448.428 48.0001V28.0001H437.388V20.0001H467.468V28.0001H456.428V48.0001H448.428ZM495.456 48.0001L491.456 44.0001V38.0001H477.656V40.0001H489.456V48.0001H473.656L469.656 44.0001V34.0001L473.656 30.0001H491.456V28.0001H470.656V20.0001H495.456L499.456 24.0001V48.0001H495.456ZM523.445 48.0001L512.645 33.4001V48.0001H504.645V28.0001H501.645V20.0001H512.645L523.445 34.6001V20.0001H531.445V48.0001H523.445ZM536.638 48.0001V30.0001H544.638V40.0001H555.438V28.0001H533.638V20.0001H559.438L563.438 24.0001V44.0001L559.438 48.0001H536.638ZM593.23 48.0001L589.23 44.0001V38.0001H575.43V40.0001H587.23V48.0001H571.43L567.43 44.0001V34.0001L571.43 30.0001H589.23V28.0001H568.43V20.0001H593.23L597.23 24.0001V48.0001H593.23ZM621.499 48.0001L615.499 42.0001H610.419V48.0001H602.419V30.0001H610.419V34.0001H621.219V28.0001H599.419V20.0001H625.219L629.219 24.0001V38.0001L625.219 42.0001L631.219 48.0001H621.499ZM642.842 48.0001V28.0001H631.802V20.0001H661.882V28.0001H650.842V48.0001H642.842Z" fill="#B42A40"/>
<path d="M47.456 36.0321C48.768 36.7681 49.424 37.9521 49.424 39.5841C49.424 40.8801 48.984 41.9441 48.104 42.7761C47.224 43.5921 45.936 44.0001 44.24 44.0001H36.944V28.0641H44.24C45.936 28.0641 47.224 28.4801 48.104 29.3121C48.984 30.1441 49.424 31.2081 49.424 32.5041C49.424 34.1201 48.768 35.2961 47.456 36.0321ZM39.584 41.5761H44.072C44.92 41.5761 45.584 41.3921 46.064 41.0241C46.544 40.6561 46.784 40.1201 46.784 39.4161C46.784 38.6961 46.544 38.1521 46.064 37.7841C45.584 37.4161 44.92 37.2321 44.072 37.2321H39.584V41.5761ZM39.584 34.8081H44.072C44.92 34.8081 45.584 34.6321 46.064 34.2801C46.544 33.9121 46.784 33.3761 46.784 32.6721C46.784 31.9521 46.544 31.4081 46.064 31.0401C45.584 30.6721 44.92 30.4881 44.072 30.4881H39.584V34.8081ZM69.8791 28.0641V44.0001H67.2391V28.0641H69.8791ZM63.8551 35.5521C64.7991 36.4801 65.2711 37.6561 65.2711 39.0801C65.2711 40.5041 64.7991 41.6801 63.8551 42.6081C62.9111 43.5361 61.5271 44.0001 59.7031 44.0001H52.6711V28.0641H55.3111V34.1601H59.7031C61.5271 34.1601 62.9111 34.6241 63.8551 35.5521ZM62.6311 39.0801C62.6311 38.2801 62.3591 37.6641 61.8151 37.2321C61.2871 36.8001 60.5431 36.5841 59.5831 36.5841H55.3111V41.5761H59.5831C60.5591 41.5761 61.3111 41.3681 61.8391 40.9521C62.3671 40.5201 62.6311 39.8961 62.6311 39.0801ZM92.8618 44.0001H90.2218V37.2321H81.6778V44.0001H79.0378V28.0641H81.6778V34.8081H90.2218V28.0641H92.8618V44.0001ZM99.1085 40.4001L97.5245 44.0001H94.8125L101.773 28.0641H104.485L111.445 44.0001H108.637L107.053 40.4001H99.1085ZM105.997 37.9761L103.093 31.3281L100.165 37.9761H105.997ZM123.189 44.0001L118.965 38.1201L114.741 44.0001H111.789L117.477 36.0561L111.789 28.0641H114.837L119.013 33.9201L123.213 28.0641H126.213L120.501 36.0081L126.213 44.0001H123.189ZM129.649 30.1521C131.217 28.5521 133.185 27.7521 135.553 27.7521C137.921 27.7521 139.881 28.5521 141.433 30.1521C143.001 31.7521 143.785 33.7121 143.785 36.0321C143.785 38.3521 143.001 40.3121 141.433 41.9121C139.881 43.5121 137.921 44.3121 135.553 44.3121C133.185 44.3121 131.217 43.5121 129.649 41.9121C128.097 40.3121 127.321 38.3521 127.321 36.0321C127.321 33.7121 128.097 31.7521 129.649 30.1521ZM131.545 40.2081C132.617 41.3281 133.953 41.8881 135.553 41.8881C137.153 41.8881 138.481 41.3281 139.537 40.2081C140.609 39.0881 141.145 37.6961 141.145 36.0321C141.145 34.3681 140.609 32.9761 139.537 31.8561C138.481 30.7361 137.153 30.1761 135.553 30.1761C133.953 30.1761 132.617 30.7361 131.545 31.8561C130.489 32.9761 129.961 34.3681 129.961 36.0321C129.961 37.6961 130.489 39.0881 131.545 40.2081ZM161.757 47.5281H159.141V44.0001H147.453V47.5281H144.837V41.5761H146.373C147.525 40.3761 148.101 38.2641 148.101 35.2401V28.0641H159.573V41.5761H161.757V47.5281ZM150.741 30.4881V35.2161C150.741 38.0641 150.341 40.1841 149.541 41.5761H156.933V30.4881H150.741ZM164.491 28.0641H167.131V40.1121L175.747 28.0641H178.507V44.0001H175.867V31.9521L167.275 44.0001H164.491V28.0641ZM181.029 28.0641H194.373V30.4881H189.021V44.0001H186.381V30.4881H181.029V28.0641ZM207.92 30.4881H199.568V34.8081H207.752V37.2321H199.568V41.5761H207.92V44.0001H196.928V28.0641H207.92V30.4881ZM218.638 30.1761C217.038 30.1761 215.71 30.7361 214.654 31.8561C213.598 32.9601 213.07 34.3521 213.07 36.0321C213.07 37.7121 213.598 39.1121 214.654 40.2321C215.71 41.3361 217.038 41.8881 218.638 41.8881C220.382 41.8881 221.774 41.2001 222.814 39.8241H225.718C225.062 41.2161 224.126 42.3121 222.91 43.1121C221.694 43.9121 220.27 44.3121 218.638 44.3121C216.302 44.3121 214.35 43.5281 212.782 41.9601C211.214 40.3761 210.43 38.4001 210.43 36.0321C210.43 33.6641 211.214 31.6961 212.782 30.1281C214.35 28.5441 216.302 27.7521 218.638 27.7521C220.254 27.7521 221.67 28.1601 222.886 28.9761C224.118 29.7761 225.062 30.8721 225.718 32.2641H222.814C221.774 30.8721 220.382 30.1761 218.638 30.1761ZM240.281 35.5521C241.225 36.4801 241.697 37.6561 241.697 39.0801C241.697 40.5041 241.225 41.6801 240.281 42.6081C239.337 43.5361 237.953 44.0001 236.129 44.0001H228.593V28.0641H231.233V34.1601H236.129C237.953 34.1601 239.337 34.6241 240.281 35.5521ZM239.057 39.0801C239.057 38.2801 238.785 37.6641 238.241 37.2321C237.713 36.8001 236.969 36.5841 236.009 36.5841H231.233V41.5761H236.009C236.985 41.5761 237.737 41.3681 238.265 40.9521C238.793 40.5201 239.057 39.8961 239.057 39.0801ZM260.339 36.0321C261.651 36.7681 262.307 37.9521 262.307 39.5841C262.307 40.8801 261.867 41.9441 260.987 42.7761C260.107 43.5921 258.819 44.0001 257.123 44.0001H249.827V28.0641H257.123C258.819 28.0641 260.107 28.4801 260.987 29.3121C261.867 30.1441 262.307 31.2081 262.307 32.5041C262.307 34.1201 261.651 35.2961 260.339 36.0321ZM252.467 41.5761H256.955C257.803 41.5761 258.467 41.3921 258.947 41.0241C259.427 40.6561 259.667 40.1201 259.667 39.4161C259.667 38.6961 259.427 38.1521 258.947 37.7841C258.467 37.4161 257.803 37.2321 256.955 37.2321H252.467V41.5761ZM252.467 34.8081H256.955C257.803 34.8081 258.467 34.6321 258.947 34.2801C259.427 33.9121 259.667 33.3761 259.667 32.6721C259.667 31.9521 259.427 31.4081 258.947 31.0401C258.467 30.6721 257.803 30.4881 256.955 30.4881H252.467V34.8081ZM280.283 39.4401C280.283 38.7361 280.035 38.2001 279.539 37.8321C279.059 37.4481 278.387 37.2561 277.523 37.2561H273.779V34.8321H277.523C278.371 34.8321 279.035 34.6401 279.515 34.2561C280.011 33.8721 280.259 33.3441 280.259 32.6721C280.259 31.8881 279.915 31.2801 279.227 30.8481C278.539 30.4001 277.643 30.1761 276.539 30.1761C275.579 30.1761 274.723 30.3681 273.971 30.7521C273.235 31.1201 272.723 31.6241 272.435 32.2641H269.675C270.075 31.0161 270.851 29.9521 272.003 29.0721C273.155 28.1921 274.643 27.7521 276.467 27.7521C278.323 27.7521 279.859 28.1841 281.075 29.0481C282.291 29.9121 282.899 31.1201 282.899 32.6721C282.899 34.1441 282.243 35.2641 280.931 36.0321C282.259 36.8001 282.923 37.9281 282.923 39.4161C282.923 40.8561 282.315 42.0321 281.099 42.9441C279.883 43.8561 278.331 44.3121 276.443 44.3121C272.843 44.3121 270.555 42.8161 269.579 39.8241H272.339C273.107 41.2001 274.475 41.8881 276.443 41.8881C277.563 41.8881 278.483 41.6801 279.203 41.2641C279.923 40.8481 280.283 40.2401 280.283 39.4401ZM287.641 30.1521C289.209 28.5521 291.177 27.7521 293.545 27.7521C295.913 27.7521 297.873 28.5521 299.425 30.1521C300.993 31.7521 301.777 33.7121 301.777 36.0321C301.777 38.3521 300.993 40.3121 299.425 41.9121C297.873 43.5121 295.913 44.3121 293.545 44.3121C291.177 44.3121 289.209 43.5121 287.641 41.9121C286.089 40.3121 285.313 38.3521 285.313 36.0321C285.313 33.7121 286.089 31.7521 287.641 30.1521ZM289.537 40.2081C290.609 41.3281 291.945 41.8881 293.545 41.8881C295.145 41.8881 296.473 41.3281 297.529 40.2081C298.601 39.0881 299.137 37.6961 299.137 36.0321C299.137 34.3681 298.601 32.9761 297.529 31.8561C296.473 30.7361 295.145 30.1761 293.545 30.1761C291.945 30.1761 290.609 30.7361 289.537 31.8561C288.481 32.9761 287.953 34.3681 287.953 36.0321C287.953 37.6961 288.481 39.0881 289.537 40.2081ZM318.588 44.0001H315.948V37.2321H307.404V44.0001H304.764V28.0641H307.404V34.8081H315.948V28.0641H318.588V44.0001ZM333.475 30.4881H325.123V34.8081H333.307V37.2321H325.123V41.5761H333.475V44.0001H322.483V28.0641H333.475V30.4881Z" fill="white"/>
</svg>
